<?xml version="1.0" encoding="UTF-8" ?>
<!DOCTYPE svg PUBLIC "-//W3C//DTD SVG 1.1//EN" "http://www.w3.org/Graphics/SVG/1.1/DTD/svg11.dtd">
<svg width="1305pt" height="363pt" viewBox="0 0 1305 363" version="1.1" xmlns="http://www.w3.org/2000/svg">
<g id="#0298f4ff">
<path fill="#0298f4" opacity="1.00" d=" M 31.75 52.94 C 35.69 51.54 39.90 52.12 43.98 52.08 C 48.71 52.21 53.47 52.12 58.15 52.87 C 58.80 66.15 58.13 79.48 58.43 92.77 C 58.54 95.04 60.84 96.84 63.07 96.63 C 82.38 96.62 101.69 96.56 121.00 96.60 C 127.43 96.69 134.16 95.83 140.20 98.62 C 147.96 101.13 154.22 106.88 158.16 113.92 C 162.04 119.86 161.53 127.23 162.08 134.00 C 162.23 152.67 161.96 171.34 162.13 190.01 C 162.40 200.71 157.63 211.60 149.06 218.13 C 144.07 221.63 138.25 224.58 132.01 224.39 C 104.32 224.35 76.64 224.38 48.96 224.41 C 43.25 224.30 37.36 225.99 31.82 224.03 C 31.28 209.37 31.82 194.68 31.62 180.00 C 31.57 140.00 31.62 100.00 31.53 60.00 C 31.51 57.65 31.61 55.29 31.75 52.94 M 61.95 127.24 C 60.98 133.99 62.02 140.88 61.27 147.66 C 60.25 154.79 60.37 162.05 61.35 169.18 C 61.65 176.45 61.41 183.75 61.61 191.04 C 61.68 192.51 61.71 194.29 63.14 195.17 C 69.21 196.21 75.36 195.14 81.44 194.98 C 90.27 195.70 99.13 194.99 107.95 195.69 C 114.57 196.61 121.29 196.65 127.94 196.18 C 130.89 195.82 132.54 192.82 132.36 190.06 C 132.31 168.71 132.76 147.35 132.19 126.01 C 129.91 125.03 127.50 124.45 125.01 124.55 C 106.00 124.59 86.98 124.72 67.96 124.60 C 65.58 124.38 63.10 124.91 61.95 127.24 Z" />
<path fill="#0298f4" opacity="1.00" d=" M 183.87 96.86 C 192.59 96.41 201.34 96.51 210.07 96.77 C 211.95 103.30 210.77 110.17 210.71 116.85 C 210.34 140.42 211.78 164.00 210.78 187.57 C 210.67 190.95 210.99 194.90 213.82 197.18 C 215.77 198.93 218.54 198.68 220.97 198.71 C 241.32 198.43 261.67 198.68 282.02 198.68 C 283.74 198.78 285.87 198.47 286.49 196.57 C 287.24 189.19 285.92 181.69 287.06 174.33 C 289.51 161.77 288.96 148.93 288.90 136.21 C 290.82 139.56 294.61 141.12 296.63 144.40 C 297.71 146.32 299.74 147.16 301.74 147.79 C 303.19 146.56 304.67 145.36 306.14 144.14 C 307.78 145.33 309.97 146.26 310.60 148.36 C 311.80 153.54 310.19 158.94 311.47 164.10 C 311.91 160.88 312.33 157.64 313.56 154.61 C 314.47 161.36 313.96 168.21 314.07 175.00 C 313.86 191.29 314.58 207.59 313.78 223.87 C 312.85 231.07 314.77 238.30 313.66 245.50 C 313.01 254.20 308.63 262.44 301.95 268.02 C 296.12 272.81 288.46 274.73 281.04 274.97 C 260.69 275.04 240.35 274.91 220.00 274.98 C 214.76 274.95 209.50 275.45 204.30 274.65 C 203.25 268.82 204.04 262.86 203.78 256.98 C 204.00 254.64 203.31 251.72 205.21 249.93 C 211.79 249.18 218.44 249.94 225.04 249.61 C 243.01 248.38 261.04 249.14 279.03 248.82 C 282.90 249.12 286.70 245.91 286.63 241.95 C 286.74 236.50 286.87 231.03 286.42 225.59 C 285.11 225.28 283.81 224.94 282.47 224.77 C 259.66 224.40 236.82 224.22 214.00 224.40 C 205.96 224.68 198.46 220.57 192.82 215.15 C 187.98 209.12 183.61 202.01 183.66 194.01 C 183.64 167.01 183.63 140.01 183.63 113.00 C 183.67 107.62 183.42 102.23 183.87 96.86 Z" />
<path fill="#0298f4" opacity="1.00" d=" M 884.26 114.13 L 885.03 113.87 C 888.46 114.01 892.19 113.80 895.18 115.81 C 897.45 117.41 900.26 117.47 902.93 117.58 C 903.47 118.90 904.02 120.23 904.59 121.56 L 904.78 122.01 C 892.94 132.37 887.77 148.98 889.72 164.37 C 892.62 187.28 913.79 206.51 936.96 206.73 C 956.24 208.09 974.41 195.39 983.26 178.81 C 982.85 183.93 986.42 187.75 989.94 190.90 C 992.99 188.95 996.51 187.94 1000.10 189.01 C 1000.06 191.41 998.49 193.31 997.19 195.18 C 992.12 201.70 987.45 208.86 980.38 213.43 C 967.07 222.19 951.15 228.25 934.99 226.48 C 924.94 226.51 915.11 223.47 906.25 218.86 C 894.54 213.20 884.62 203.88 878.45 192.41 C 863.93 168.53 865.88 135.45 884.26 114.13 Z" />
<path fill="#0298f4" opacity="1.00" d=" M 464.98 125.25 C 466.42 122.17 470.22 123.05 472.95 122.80 C 490.30 122.63 507.65 122.82 525.01 122.65 C 528.26 122.69 531.59 122.36 534.78 123.16 C 536.87 124.33 538.49 126.51 538.32 129.00 C 538.26 135.57 538.73 142.19 537.95 148.73 C 535.30 149.02 532.64 149.26 529.99 149.27 C 512.66 149.28 495.33 149.36 478.00 149.33 C 474.05 149.27 470.07 149.66 466.16 149.03 C 463.98 147.82 464.87 145.02 464.62 143.00 C 464.87 137.09 464.20 131.13 464.98 125.25 M 468.11 125.00 C 465.75 126.83 465.34 130.17 465.80 132.94 C 466.51 137.32 466.42 141.76 466.81 146.16 C 472.20 146.73 477.63 146.37 483.04 146.49 C 486.38 146.51 489.66 147.41 493.01 147.28 C 507.28 145.57 521.71 147.10 536.03 146.19 C 538.03 141.39 537.36 136.06 537.22 131.01 C 537.14 128.05 535.56 124.37 532.03 124.68 C 513.03 124.41 494.03 124.82 475.04 124.44 C 472.74 124.49 470.19 123.74 468.11 125.00 Z" />
<path fill="#0298f4" opacity="1.00" d=" M 366.86 138.62 C 367.55 133.70 367.02 128.70 367.75 123.79 C 368.04 127.18 368.07 130.59 368.04 134.00 C 367.91 152.35 368.20 170.70 368.07 189.05 C 368.28 191.46 367.69 194.45 369.78 196.22 C 372.86 199.73 377.91 198.44 382.00 198.65 C 393.65 198.79 405.31 198.24 416.94 198.85 C 417.61 206.88 417.23 215.00 416.18 222.97 C 415.84 225.43 412.70 224.63 410.95 224.85 C 399.90 224.34 388.83 224.54 377.77 224.74 C 372.07 224.46 366.03 224.92 360.79 222.23 C 352.38 218.21 344.78 211.34 341.79 202.32 C 339.88 194.32 340.84 186.00 340.72 177.86 C 341.31 177.74 342.48 177.52 343.06 177.41 C 343.21 183.91 342.69 190.43 343.19 196.92 C 343.70 203.25 348.84 208.28 354.71 210.10 C 360.34 211.46 360.91 218.80 366.38 220.51 C 376.68 223.76 387.48 220.08 398.00 220.66 C 402.86 220.49 408.43 221.64 412.68 218.71 C 415.48 213.85 415.29 207.80 414.50 202.40 C 401.45 200.28 388.27 204.73 375.17 203.02 C 370.95 202.64 367.68 199.19 366.68 195.22 C 365.06 188.60 366.38 181.73 366.10 175.00 C 366.47 162.87 365.02 150.67 366.86 138.62 Z" />
</g>
<g id="#fcfdfaff">
<path fill="#fcfdfa" opacity="1.00" d=" M 775.07 55.88 C 784.36 55.56 793.68 55.58 802.97 55.95 C 803.47 68.87 803.11 81.82 803.16 94.74 C 803.81 96.27 805.62 95.94 806.96 96.06 C 821.90 96.15 836.84 95.76 851.77 96.17 C 851.71 105.09 851.90 114.01 851.75 122.92 C 835.71 123.94 819.58 123.04 803.51 123.51 C 802.83 145.99 803.35 168.53 803.26 191.03 C 802.92 194.07 804.81 197.60 808.18 197.62 C 822.75 197.98 837.35 197.43 851.92 198.00 C 852.08 207.09 851.91 216.19 851.93 225.29 C 841.30 225.69 830.64 225.25 819.99 225.37 C 810.96 225.26 801.26 226.52 793.05 221.87 C 782.26 216.60 775.08 205.05 775.00 193.06 C 774.98 147.34 774.94 101.61 775.07 55.88 Z" />
<path fill="#fcfdfa" opacity="1.00" d=" M 591.22 89.14 C 594.08 75.32 606.30 62.71 621.02 62.77 C 650.00 62.50 679.00 62.68 707.99 62.64 C 715.36 62.82 723.09 61.91 730.05 64.92 C 738.73 68.33 745.36 76.03 748.11 84.87 C 750.31 91.30 750.15 98.19 749.89 104.90 C 740.28 105.11 730.66 105.02 721.05 104.95 C 720.98 101.32 721.22 97.69 720.93 94.07 C 720.74 92.11 719.09 90.11 716.97 90.39 C 686.33 90.17 655.68 90.64 625.04 90.27 C 622.49 90.10 619.89 91.73 619.40 94.32 C 618.71 98.18 619.31 102.11 619.23 105.99 C 619.45 112.61 619.09 119.23 619.34 125.83 C 620.10 129.08 624.06 129.81 626.93 129.69 C 657.62 129.65 688.30 129.57 718.99 129.71 C 734.91 129.79 748.11 144.19 749.62 159.54 C 750.35 168.00 749.83 176.52 749.98 185.01 C 750.10 193.05 749.75 201.52 745.72 208.72 C 740.17 218.54 729.48 225.74 717.97 225.43 C 690.65 225.43 663.32 225.39 636.00 225.38 C 629.07 225.21 622.04 225.95 615.19 224.62 C 602.98 221.81 593.79 210.97 591.19 198.98 C 590.63 193.59 590.55 188.15 590.85 182.74 C 600.24 182.38 609.66 182.45 619.05 182.73 C 619.29 186.68 618.86 190.67 619.44 194.59 C 620.53 197.09 623.50 197.68 625.96 197.70 C 655.96 197.70 685.96 197.63 715.97 197.77 C 718.60 198.01 720.99 195.62 720.81 192.99 C 720.99 183.30 720.88 173.61 720.97 163.92 C 721.13 161.28 720.12 157.31 716.78 157.52 C 685.86 157.36 654.94 157.62 624.03 157.46 C 618.76 157.45 613.36 156.86 608.62 154.40 C 597.74 149.09 590.03 137.22 590.62 124.96 C 590.83 113.03 590.20 101.04 591.22 89.14 Z" />
<path fill="#fcfdfa" opacity="1.00" d=" M 1030.68 128.02 C 1030.20 110.99 1045.91 95.22 1063.00 95.96 C 1084.43 96.04 1105.87 95.99 1127.31 96.05 C 1127.49 105.05 1127.51 114.08 1127.25 123.07 C 1106.53 123.78 1085.76 123.13 1065.03 123.40 C 1061.49 123.22 1058.68 126.50 1059.00 129.94 C 1058.96 161.75 1059.04 193.55 1058.98 225.36 C 1049.60 225.55 1040.22 225.57 1030.85 225.27 C 1030.68 192.85 1030.71 160.44 1030.68 128.02 Z" />
<path fill="#fcfdfa" opacity="1.00" d=" M 1145.32 117.35 C 1150.14 104.70 1163.30 95.24 1177.01 95.95 C 1199.36 96.05 1221.71 95.96 1244.06 95.99 C 1260.69 96.72 1273.84 112.72 1273.69 128.94 C 1273.68 144.23 1273.57 159.52 1273.71 174.82 C 1239.76 175.22 1205.79 174.79 1171.84 175.05 C 1171.63 181.04 1171.77 187.04 1171.80 193.03 C 1171.56 195.46 1173.36 198.16 1176.03 197.91 C 1208.44 197.58 1240.88 197.65 1273.29 197.87 C 1273.60 207.03 1273.39 216.20 1273.38 225.35 C 1243.25 225.49 1213.12 225.39 1183.00 225.43 C 1176.36 225.55 1169.45 225.54 1163.33 222.63 C 1151.34 217.58 1142.72 205.13 1142.98 192.03 C 1143.08 173.68 1143.00 155.34 1143.01 137.00 C 1142.89 130.39 1142.92 123.61 1145.32 117.35 M 1172.58 124.56 C 1172.24 132.26 1172.55 139.97 1172.38 147.67 C 1196.47 147.69 1220.55 147.77 1244.64 147.70 C 1244.39 140.61 1244.87 133.50 1244.45 126.43 C 1243.62 123.61 1240.25 124.32 1238.03 124.22 C 1216.22 124.56 1194.37 123.93 1172.58 124.56 Z" />
<path fill="#fcfdfa" opacity="1.00" d=" M 377.51 267.45 C 378.17 266.56 378.93 265.42 380.22 265.53 C 383.47 265.31 386.75 265.42 390.01 265.38 C 384.90 274.56 378.70 283.14 372.98 291.96 C 372.16 293.13 371.78 294.53 371.82 295.95 C 371.77 301.61 372.04 307.28 371.95 312.94 C 368.38 313.07 364.81 313.06 361.24 312.87 C 361.36 307.57 361.41 302.27 361.28 296.97 C 361.24 292.45 357.71 289.12 355.64 285.39 C 351.72 278.75 346.98 272.60 343.49 265.73 C 347.24 265.50 351.06 265.19 354.79 265.88 C 359.68 271.56 361.64 279.35 366.99 284.67 C 370.67 279.04 373.68 272.99 377.51 267.45 Z" />
<path fill="#fcfdfa" opacity="1.00" d=" M 416.39 265.51 C 420.76 264.35 425.39 264.53 429.83 265.24 C 438.51 267.02 446.04 273.83 448.47 282.39 C 450.38 290.47 449.27 300.03 442.92 305.95 C 433.48 316.29 415.19 316.72 405.55 306.45 C 400.10 301.27 397.48 293.48 398.43 286.05 C 399.74 276.46 407.08 268.13 416.39 265.51 M 417.90 275.75 C 412.91 277.21 410.98 282.74 409.97 287.31 C 409.97 291.32 410.22 295.88 413.06 299.02 C 414.54 301.22 416.65 303.04 419.32 303.58 C 424.31 304.77 430.62 304.41 434.06 300.10 C 434.24 299.77 434.60 299.13 434.78 298.81 L 435.69 298.84 L 436.33 297.97 L 436.01 297.11 C 440.05 290.76 438.27 281.35 432.08 276.84 C 427.92 274.08 422.45 273.78 417.90 275.75 Z" />
<path fill="#fcfdfa" opacity="1.00" d=" M 465.55 265.58 C 468.85 265.26 472.18 265.25 475.49 265.53 C 476.15 275.33 475.06 285.19 475.81 295.00 C 475.96 298.86 478.57 302.63 482.29 303.81 C 486.38 304.89 491.42 304.86 494.41 301.40 C 497.09 299.04 497.28 295.30 497.30 291.99 C 497.36 283.27 497.22 274.56 497.22 265.84 C 500.51 265.19 503.87 265.38 507.18 265.74 C 507.50 275.14 507.36 284.56 507.36 293.97 C 507.53 300.08 505.17 306.50 500.02 310.09 C 496.32 313.01 491.46 313.47 486.94 313.86 C 480.21 314.24 472.85 311.81 469.11 305.89 C 464.79 300.57 465.65 293.38 465.48 286.99 C 465.67 279.86 465.14 272.71 465.55 265.58 Z" />
<path fill="#fcfdfa" opacity="1.00" d=" M 608.00 265.19 C 621.50 265.23 635.02 264.92 648.51 265.41 C 648.47 268.26 648.58 271.15 647.96 273.95 C 643.01 274.12 638.06 273.96 633.12 274.15 C 632.84 287.08 633.32 300.02 633.06 312.95 C 629.65 313.08 626.25 313.07 622.85 312.94 C 622.41 300.13 623.16 287.30 622.52 274.50 C 617.73 274.03 612.91 274.34 608.12 273.96 C 607.81 271.04 607.74 268.10 608.00 265.19 Z" />
<path fill="#fcfdfa" opacity="1.00" d=" M 664.03 265.31 C 675.95 265.24 687.87 265.15 699.79 265.30 C 700.00 268.13 700.00 270.97 699.80 273.81 C 691.20 274.26 682.58 273.71 673.98 274.09 C 673.70 277.63 673.76 281.19 674.17 284.72 C 681.55 284.74 688.95 284.46 696.33 284.92 C 696.65 287.59 696.66 290.28 696.31 292.94 C 688.92 293.11 681.53 293.07 674.15 293.28 C 673.71 296.83 673.68 300.41 673.94 303.98 C 682.74 304.46 691.57 303.81 700.35 304.59 C 700.49 307.31 700.54 310.03 700.56 312.76 C 688.34 313.28 676.08 312.92 663.84 312.96 C 664.02 297.08 663.46 281.17 664.03 265.31 Z" />
<path fill="#fcfdfa" opacity="1.00" d=" M 726.33 268.30 C 732.86 263.97 741.22 264.00 748.65 265.41 C 752.53 266.65 756.94 268.40 759.09 272.04 C 757.64 274.80 755.19 276.83 752.93 278.89 C 749.23 276.63 745.54 273.87 741.01 273.80 C 735.09 272.84 729.78 277.11 727.08 282.02 C 722.80 290.62 727.86 302.61 737.63 304.35 C 743.36 306.02 748.28 302.23 752.93 299.53 C 754.93 301.41 758.81 302.72 758.90 305.78 C 750.74 315.19 735.54 316.55 725.45 309.53 C 718.76 305.06 714.33 297.11 714.93 288.97 C 714.74 280.69 719.26 272.57 726.33 268.30 Z" />
<path fill="#fcfdfa" opacity="1.00" d=" M 775.54 265.56 C 778.82 265.20 782.16 265.01 785.45 265.57 C 786.02 271.77 785.29 278.00 785.89 284.19 C 792.79 284.33 799.79 284.94 806.65 284.00 C 806.94 277.79 806.26 271.54 807.09 265.36 C 810.18 265.29 813.29 265.25 816.37 265.62 C 816.98 281.35 816.20 297.09 816.71 312.81 C 813.25 313.11 809.77 313.11 806.32 312.81 C 806.34 306.30 807.00 299.74 805.98 293.29 C 799.32 293.11 792.65 293.23 786.00 293.29 C 785.23 299.81 785.82 306.39 785.89 312.93 C 782.38 313.07 778.87 313.08 775.38 312.77 C 775.85 297.03 775.13 281.28 775.54 265.56 Z" />
<path fill="#fcfdfa" opacity="1.00" d=" M 863.17 265.29 C 866.41 265.23 869.66 265.22 872.91 265.34 C 874.08 275.38 872.51 285.54 873.56 295.59 C 874.15 298.94 876.37 302.03 879.43 303.56 C 882.66 304.76 886.35 304.71 889.62 303.64 C 892.69 301.93 895.02 298.62 895.04 295.03 C 895.64 285.12 894.90 275.19 895.19 265.28 C 898.40 265.20 901.61 265.26 904.84 265.36 C 905.55 274.54 904.82 283.78 905.12 292.99 C 905.56 300.26 902.32 308.11 895.64 311.60 C 889.10 314.76 881.42 314.41 874.60 312.39 C 871.37 311.28 868.90 308.75 866.77 306.19 C 863.50 301.88 862.90 296.23 863.02 291.00 C 863.18 282.43 862.74 273.85 863.17 265.29 Z" />
<path fill="#fcfdfa" opacity="1.00" d=" M 956.55 265.56 C 959.63 265.15 962.74 265.10 965.86 265.19 C 966.19 281.10 965.92 297.03 965.96 312.95 C 963.07 313.07 960.18 313.05 957.30 312.84 C 953.14 306.12 947.77 300.26 943.08 293.92 C 940.18 290.48 937.78 286.62 934.71 283.35 C 934.35 283.27 933.61 283.11 933.25 283.03 C 933.87 292.94 933.55 302.88 933.72 312.80 C 930.41 313.07 927.10 313.08 923.81 312.94 C 923.31 299.64 923.74 286.31 923.70 273.00 C 923.77 270.45 923.39 267.71 924.74 265.40 C 927.47 265.46 930.21 265.51 932.96 265.65 C 938.59 272.19 943.68 279.18 949.22 285.81 C 951.70 288.51 953.01 292.36 956.28 294.26 C 956.71 284.71 955.98 275.12 956.55 265.56 Z" />
<path fill="#fcfdfa" opacity="1.00" d=" M 985.50 265.52 C 988.64 264.92 991.85 265.07 995.04 265.26 C 995.79 269.80 995.33 274.41 995.38 278.99 C 995.21 290.33 995.56 301.66 995.37 313.00 C 992.01 313.13 988.65 313.15 985.31 312.84 C 985.55 297.06 985.18 281.29 985.50 265.52 Z" />
<path fill="#fcfdfa" opacity="1.00" d=" M 1010.98 265.33 C 1014.38 265.39 1017.90 264.92 1021.24 265.77 C 1022.78 268.14 1023.51 270.92 1024.49 273.55 C 1027.23 281.62 1030.21 289.62 1033.68 297.40 C 1033.97 297.67 1034.56 298.21 1034.85 298.48 C 1039.59 288.00 1043.04 276.97 1047.56 266.42 C 1050.57 264.67 1054.71 265.83 1058.15 265.81 C 1056.21 272.06 1053.23 277.92 1051.13 284.12 C 1047.72 293.87 1043.50 303.31 1039.71 312.92 C 1036.24 313.40 1032.75 313.27 1029.29 312.87 C 1024.49 300.65 1019.53 288.50 1014.78 276.27 C 1013.42 272.65 1011.41 269.22 1010.98 265.33 Z" />
<path fill="#fcfdfa" opacity="1.00" d=" M 1073.99 265.35 C 1085.92 265.16 1097.85 265.30 1109.78 265.32 C 1110.02 268.16 1110.03 271.02 1109.88 273.87 C 1101.32 274.23 1092.74 273.61 1084.19 274.14 C 1082.74 277.27 1083.84 281.19 1083.48 284.63 C 1089.66 284.81 1095.85 284.60 1102.04 284.71 C 1103.65 284.66 1105.23 285.01 1106.71 285.70 C 1106.65 288.14 1106.55 290.59 1106.31 293.03 C 1098.74 293.44 1091.13 292.72 1083.60 293.55 C 1083.46 296.96 1083.39 300.38 1083.43 303.79 C 1092.37 304.78 1101.40 303.65 1110.35 304.57 C 1110.48 307.30 1110.54 310.02 1110.57 312.76 C 1098.32 313.27 1086.05 312.92 1073.79 312.95 C 1073.40 298.63 1073.51 284.30 1073.41 269.97 C 1073.37 268.41 1073.62 266.86 1073.99 265.35 Z" />
<path fill="#fcfdfa" opacity="1.00" d=" M 1127.16 265.26 C 1134.46 265.23 1141.76 265.13 1149.07 265.17 C 1154.28 265.25 1159.98 266.34 1163.72 270.28 C 1167.79 274.82 1168.06 281.66 1166.24 287.21 C 1164.80 291.57 1160.57 293.77 1157.06 296.22 C 1160.71 301.86 1165.27 306.95 1168.38 312.92 C 1164.35 313.09 1160.32 313.10 1156.31 312.80 C 1153.11 307.97 1150.44 302.76 1146.77 298.27 C 1144.11 296.39 1140.48 297.47 1137.43 297.47 C 1136.76 302.61 1137.53 307.78 1137.16 312.94 C 1133.78 313.07 1130.41 313.07 1127.04 312.95 C 1127.12 297.05 1126.84 281.15 1127.16 265.26 M 1137.34 274.33 C 1137.33 278.86 1137.35 283.39 1137.32 287.92 C 1141.50 288.66 1145.79 288.47 1150.03 288.26 C 1151.67 288.22 1153.20 287.47 1154.50 286.47 C 1157.71 284.42 1157.37 279.50 1155.73 276.53 C 1155.33 276.36 1154.52 276.02 1154.11 275.85 C 1153.16 275.14 1152.21 274.28 1150.95 274.41 C 1146.41 274.26 1141.87 274.39 1137.34 274.33 Z" />
<path fill="#fcfdfa" opacity="1.00" d=" M 1183.49 275.38 C 1184.76 269.96 1189.92 266.25 1195.13 265.08 C 1202.97 263.96 1211.94 265.09 1217.86 270.84 C 1216.15 273.05 1215.31 276.26 1213.03 277.82 C 1208.05 275.50 1202.63 272.03 1196.93 273.87 C 1193.70 274.54 1191.73 279.14 1194.71 281.33 C 1200.79 285.49 1209.10 284.38 1215.03 288.99 C 1219.25 291.75 1220.06 297.33 1219.44 301.97 C 1218.78 308.43 1212.41 312.60 1206.41 313.38 C 1197.94 314.62 1188.64 312.48 1182.14 306.74 C 1182.27 303.79 1185.57 301.67 1187.30 299.32 C 1191.28 301.69 1195.21 304.60 1200.01 304.97 C 1203.20 305.21 1207.37 305.37 1209.22 302.17 C 1210.68 299.92 1208.61 297.36 1206.64 296.31 C 1200.92 293.15 1193.85 293.42 1188.41 289.64 C 1183.80 286.67 1182.19 280.50 1183.49 275.38 Z" />
<path fill="#fcfdfa" opacity="1.00" d=" M 1236.52 265.57 C 1248.33 264.82 1260.20 265.23 1272.04 265.30 C 1272.66 268.14 1272.54 271.05 1272.18 273.92 C 1263.54 274.29 1254.88 273.51 1246.28 274.27 C 1245.80 277.72 1245.87 281.22 1246.21 284.69 C 1253.86 284.86 1261.52 284.57 1269.17 284.90 C 1269.34 287.57 1269.27 290.26 1268.98 292.92 C 1261.47 293.45 1253.94 293.01 1246.44 293.44 C 1245.57 296.89 1245.98 300.48 1246.12 304.00 C 1255.02 304.32 1263.93 304.05 1272.84 304.29 C 1273.06 307.17 1273.09 310.06 1272.97 312.95 C 1260.72 313.00 1248.46 313.07 1236.21 312.89 C 1236.41 297.12 1235.45 281.31 1236.52 265.57 Z" />
<path fill="#fcfdfa" opacity="1.00" d=" M 525.88 265.66 C 532.24 265.12 538.62 265.53 545.00 265.35 C 550.41 265.35 556.62 265.13 560.80 269.19 C 565.98 273.35 566.34 280.84 564.79 286.82 C 563.52 291.18 559.50 293.72 555.91 296.04 C 559.21 301.97 563.76 307.07 567.16 312.93 C 563.18 313.09 559.21 313.10 555.24 312.84 C 551.47 308.11 549.13 302.38 545.25 297.76 C 542.29 296.99 539.19 297.26 536.17 297.31 C 535.68 302.51 536.14 307.73 535.95 312.94 C 532.59 313.07 529.23 313.07 525.87 312.93 C 525.61 297.18 525.71 281.41 525.88 265.66 M 536.73 274.82 C 536.45 279.26 536.43 283.72 536.72 288.17 C 542.69 288.37 549.49 289.37 554.44 285.20 C 556.12 282.69 556.21 279.32 554.40 276.86 C 549.03 273.72 542.65 274.63 536.73 274.82 Z" />
</g>
<g id="#03c0f4ff">
<path fill="#03c0f4" opacity="1.00" d=" M 340.84 56.82 C 348.23 56.32 355.63 56.76 363.03 56.62 C 364.86 56.73 368.16 56.30 367.91 59.09 C 368.58 71.51 367.31 84.03 368.59 96.42 C 384.42 97.05 400.30 96.15 416.13 96.86 C 417.19 101.23 416.00 105.74 416.76 110.15 C 416.93 114.20 417.82 118.55 416.05 122.37 C 401.06 122.50 386.06 122.29 371.06 122.40 C 369.78 122.30 368.57 122.80 367.75 123.79 C 367.02 128.70 367.55 133.70 366.86 138.62 C 365.02 150.67 366.47 162.87 366.10 175.00 C 366.38 181.73 365.06 188.60 366.68 195.22 C 367.68 199.19 370.95 202.64 375.17 203.02 C 388.27 204.73 401.45 200.28 414.50 202.40 C 415.29 207.80 415.48 213.85 412.68 218.71 C 408.43 221.64 402.86 220.49 398.00 220.66 C 387.48 220.08 376.68 223.76 366.38 220.51 C 360.91 218.80 360.34 211.46 354.71 210.10 C 348.84 208.28 343.70 203.25 343.19 196.92 C 342.69 190.43 343.21 183.91 343.06 177.41 C 342.48 177.52 341.31 177.74 340.72 177.86 C 340.52 145.24 340.71 112.62 340.62 80.00 C 340.75 72.27 340.40 64.54 340.84 56.82 Z" />
<path fill="#03c0f4" opacity="1.00" d=" M 934.24 74.07 C 939.18 72.78 945.35 74.08 948.33 78.53 C 949.23 81.93 949.09 85.51 949.18 89.01 C 949.11 108.35 949.48 127.69 949.03 147.03 C 948.89 150.80 947.73 155.44 943.68 156.73 C 938.26 159.77 928.66 157.26 928.73 150.01 C 928.52 127.34 928.60 104.66 928.51 81.99 C 928.08 78.31 930.79 75.01 934.24 74.07 Z" />
<path fill="#03c0f4" opacity="1.00" d=" M 286.83 96.78 C 295.56 96.43 304.34 96.42 313.07 96.89 C 314.47 102.15 313.96 107.62 314.04 113.00 C 313.87 125.34 314.16 137.68 314.10 150.02 C 314.05 151.55 314.08 153.14 313.56 154.61 C 312.33 157.64 311.91 160.88 311.47 164.10 C 310.19 158.94 311.80 153.54 310.60 148.36 C 309.97 146.26 307.78 145.33 306.14 144.14 C 304.67 145.36 303.19 146.56 301.74 147.79 C 299.74 147.16 297.71 146.32 296.63 144.40 C 294.61 141.12 290.82 139.56 288.90 136.21 C 288.96 148.93 289.51 161.77 287.06 174.33 C 286.68 171.57 286.55 168.78 286.60 166.00 C 286.82 142.93 286.37 119.84 286.83 96.78 Z" />
<path fill="#03c0f4" opacity="1.00" d=" M 437.14 127.12 C 437.64 111.07 451.95 96.96 467.98 96.57 C 489.98 96.61 511.99 96.56 533.99 96.58 C 541.28 96.50 548.29 99.51 554.05 103.83 C 561.67 110.20 565.54 120.19 565.42 130.01 C 565.32 144.71 565.61 159.43 565.15 174.11 C 532.52 174.69 499.85 174.03 467.21 174.43 C 465.65 174.34 464.28 175.62 464.39 177.21 C 464.25 182.45 464.28 187.70 464.36 192.94 C 464.27 195.41 465.82 198.03 468.40 198.41 C 471.58 198.86 474.80 198.57 478.01 198.60 C 504.67 198.45 531.34 198.70 558.00 198.55 C 560.36 198.52 562.73 198.65 565.09 198.85 C 565.62 207.51 565.46 216.22 565.07 224.88 C 535.04 225.48 505.02 223.84 475.00 224.86 C 468.68 224.47 462.00 224.85 456.19 221.91 C 448.33 218.63 442.11 211.89 438.91 204.06 C 435.96 195.35 437.07 186.02 437.01 177.00 C 436.99 160.37 436.75 143.74 437.14 127.12 M 464.98 125.25 C 464.20 131.13 464.87 137.09 464.62 143.00 C 464.87 145.02 463.98 147.82 466.16 149.03 C 470.07 149.66 474.05 149.27 478.00 149.33 C 495.33 149.36 512.66 149.28 529.99 149.27 C 532.64 149.26 535.30 149.02 537.95 148.73 C 538.73 142.19 538.26 135.57 538.32 129.00 C 538.49 126.51 536.87 124.33 534.78 123.16 C 531.59 122.36 528.26 122.69 525.01 122.65 C 507.65 122.82 490.30 122.63 472.95 122.80 C 470.22 123.05 466.42 122.17 464.98 125.25 Z" />
<path fill="#03c0f4" opacity="1.00" d=" M 895.38 103.37 C 897.80 101.60 900.79 100.12 903.87 100.88 C 911.56 102.52 913.66 114.01 908.01 118.94 C 906.96 119.94 905.75 120.73 904.59 121.56 C 904.02 120.23 903.47 118.90 902.93 117.58 C 900.26 117.47 897.45 117.41 895.18 115.81 C 892.19 113.80 888.46 114.01 885.03 113.87 C 887.27 109.36 891.44 106.31 895.38 103.37 Z" />
<path fill="#03c0f4" opacity="1.00" d=" M 968.61 118.37 C 963.03 113.37 965.81 102.60 973.02 100.74 C 975.66 100.14 978.52 100.66 980.65 102.37 C 992.38 110.77 1001.12 123.29 1005.06 137.16 C 1006.72 143.32 1008.53 149.56 1008.38 156.01 C 1008.37 167.39 1006.19 178.99 1000.82 189.11 L 1000.10 189.01 C 996.51 187.94 992.99 188.95 989.94 190.90 C 986.42 187.75 982.85 183.93 983.26 178.81 C 985.27 173.02 987.46 167.19 987.42 160.95 C 988.42 150.65 985.38 140.43 980.44 131.49 C 977.52 126.28 972.84 122.45 968.61 118.37 Z" />
</g>
</svg>
